/* XPM */
static const char * rcss_xpm[] = {
"48 48 518 2",
"  	c None",
". 	c #D7D7CF",
"+ 	c #EFEBDF",
"@ 	c #E7E7DF",
"# 	c #E7E3D7",
"$ 	c #DFDFD7",
"% 	c #DFDBD7",
"& 	c #DFD7CF",
"* 	c #D7D3C7",
"= 	c #D7CFC7",
"- 	c #CFCFC7",
"; 	c #CFCBBE",
"> 	c #CFC7BE",
", 	c #C7C7BE",
"' 	c #C7C3BE",
") 	c #C7BEB6",
"! 	c #BDBDB5",
"~ 	c #BCB8B4",
"{ 	c #BBB7AB",
"] 	c #B6AEA7",
"^ 	c #9B9B94",
"/ 	c #8F8C81",
"( 	c #7D7A76",
"_ 	c #BEBEB6",
": 	c #BEBAB6",
"< 	c #BCB8AC",
"[ 	c #B9B1A9",
"} 	c #AEAEA6",
"| 	c #A9A6A2",
"1 	c #A4A196",
"2 	c #83807C",
"3 	c #000000",
"4 	c #F6F5F6",
"5 	c #EEEEEE",
"6 	c #EDEEED",
"7 	c #EDEDED",
"8 	c #ECEDEC",
"9 	c #ECECEC",
"0 	c #EBECEB",
"a 	c #EBEBEB",
"b 	c #EAEBEA",
"c 	c #EAEAEA",
"d 	c #E9EAE9",
"e 	c #E9E9E9",
"f 	c #E8E9E8",
"g 	c #E8E8E8",
"h 	c #E7E7E7",
"i 	c #EFEFEF",
"j 	c #A39C95",
"k 	c #918A83",
"l 	c #F1F1F1",
"m 	c #F8F7F8",
"n 	c #F4F4F4",
"o 	c #F2F2F2",
"p 	c #F1F0F1",
"q 	c #F0EFF0",
"r 	c #F0F0F0",
"s 	c #E7E6E7",
"t 	c #96938F",
"u 	c #F6F6F6",
"v 	c #FCFCFC",
"w 	c #F5F5F5",
"x 	c #E9EAEA",
"y 	c #DFE1E3",
"z 	c #DADCDE",
"A 	c #DEE1E2",
"B 	c #E8E8E9",
"C 	c #E6E6E6",
"D 	c #9B9894",
"E 	c #979489",
"F 	c #F7F7F7",
"G 	c #E5E6E7",
"H 	c #BEC3C9",
"I 	c #9BA3AE",
"J 	c #909AA3",
"K 	c #97A1AB",
"L 	c #97A0A9",
"M 	c #9AA2AB",
"N 	c #B9BEC3",
"O 	c #DDDFDF",
"P 	c #EEEFEE",
"Q 	c #F3F3F3",
"R 	c #9C988D",
"S 	c #909089",
"T 	c #D6DADC",
"U 	c #A0A9B2",
"V 	c #9CA6B1",
"W 	c #A5AEB9",
"X 	c #AAB4BD",
"Y 	c #AAB2BC",
"Z 	c #A2ACB4",
"` 	c #969EA7",
" .	c #8B939B",
"..	c #828991",
"+.	c #BDBFC1",
"@.	c #E5E5E5",
"#.	c #95958D",
"$.	c #908D89",
"%.	c #F3F2F3",
"&.	c #DDDFE2",
"*.	c #9DA7B1",
"=.	c #AAB3BE",
"-.	c #BCC5CC",
";.	c #C7CFD6",
">.	c #C7CDD4",
",.	c #CFD6DA",
"'.	c #C7CDD3",
").	c #C2C8CF",
"!.	c #B5BBC3",
"~.	c #788189",
"{.	c #4D545B",
"].	c #BDBFC0",
"^.	c #95918D",
"/.	c #8F8C88",
"(.	c #E7E7E9",
"_.	c #A6B0BA",
":.	c #ADB7C2",
"<.	c #C0C9CF",
"[.	c #D3D6D8",
"}.	c #C4C8CD",
"|.	c #B1BAC0",
"1.	c #A8B0B7",
"2.	c #AFB7BE",
"3.	c #CACFD3",
"4.	c #C9CFD4",
"5.	c #9AA1A8",
"6.	c #424B52",
"7.	c #45494E",
"8.	c #DBDBDB",
"9.	c #E5E6E5",
"0.	c #94908D",
"a.	c #8F8881",
"b.	c #E7DFD7",
"c.	c #C7CCD1",
"d.	c #A2AEBA",
"e.	c #C3CCD6",
"f.	c #D8DCDE",
"g.	c #CDD0D3",
"h.	c #C5CCD3",
"i.	c #B7BFC7",
"j.	c #A9B3BC",
"k.	c #9BA6B1",
"l.	c #B1B8BF",
"m.	c #D6DADF",
"n.	c #CAD0D6",
"o.	c #949CA5",
"p.	c #343A41",
"q.	c #959798",
"r.	c #E4E4E4",
"s.	c #958D86",
"t.	c #898982",
"u.	c #A2ACB6",
"v.	c #A5B2BD",
"w.	c #C5CCD2",
"x.	c #DEE0E0",
"y.	c #CDC2C4",
"z.	c #B78B8E",
"A.	c #B08A8F",
"B.	c #A7A6AF",
"C.	c #97A3AD",
"D.	c #B1B7BE",
"E.	c #D3D7D9",
"F.	c #818385",
"G.	c #AAB1B9",
"H.	c #646E77",
"I.	c #6B7074",
"J.	c #DADBDC",
"K.	c #D9D9D9",
"L.	c #A3A3A3",
"M.	c #9A999A",
"N.	c #CAC9CA",
"O.	c #E3E3E3",
"P.	c #E1E1E1",
"Q.	c #E4E5E4",
"R.	c #8D8D86",
"S.	c #898682",
"T.	c #E4E5E6",
"U.	c #909CA8",
"V.	c #ADB8C2",
"W.	c #D1D6DA",
"X.	c #C89796",
"Y.	c #AB5556",
"Z.	c #A95151",
"`.	c #9A7275",
" +	c #54585B",
".+	c #5F6061",
"++	c #AAABAD",
"@+	c #373737",
"#+	c #555759",
"$+	c #798087",
"%+	c #676C70",
"&+	c #656565",
"*+	c #908F90",
"=+	c #6A6A6A",
"-+	c #777677",
";+	c #B5B5B5",
">+	c #878787",
",+	c #A7A7A7",
"'+	c #8D8D8D",
")+	c #959595",
"!+	c #6D6D6D",
"~+	c #636363",
"{+	c #BABABA",
"]+	c #8D8A86",
"^+	c #E0E2E3",
"/+	c #8B95A1",
"(+	c #B4BDC6",
"_+	c #DBDEE1",
":+	c #E7E8E7",
"<+	c #B86464",
"[+	c #B15858",
"}+	c #A6494A",
"|+	c #696465",
"1+	c #858586",
"2+	c #5A5A5A",
"3+	c #4C4E4E",
"4+	c #848586",
"5+	c #525253",
"6+	c #303234",
"7+	c #9C9D9D",
"8+	c #3D3D3D",
"9+	c #444544",
"0+	c #B1B1B1",
"a+	c #DADADA",
"b+	c #575757",
"c+	c #8A8A8A",
"d+	c #3C3C3C",
"e+	c #686868",
"f+	c #6A6B6A",
"g+	c #5E5E5E",
"h+	c #8C8C8C",
"i+	c #88827B",
"j+	c #DFDBCF",
"k+	c #E3E4E4",
"l+	c #97A1AA",
"m+	c #B8C1C9",
"n+	c #D6DCDF",
"o+	c #E3E4E5",
"p+	c #C08989",
"q+	c #DBCACA",
"r+	c #C59393",
"s+	c #BDB4B5",
"t+	c #717274",
"u+	c #85878A",
"v+	c #929598",
"w+	c #6D7276",
"x+	c #3B4045",
"y+	c #656D75",
"z+	c #54595E",
"A+	c #717273",
"B+	c #B8B8B8",
"C+	c #C4C4C4",
"D+	c #747474",
"E+	c #959695",
"F+	c #797979",
"G+	c #7E7E7E",
"H+	c #414141",
"I+	c #787878",
"J+	c #7F7F7F",
"K+	c #D3D2D3",
"L+	c #8D867F",
"M+	c #827E7B",
"N+	c #A8B0B8",
"O+	c #B8C1C8",
"P+	c #CED4D9",
"Q+	c #D9DDE1",
"R+	c #DDE0E3",
"S+	c #E4E7E9",
"T+	c #E6E9EB",
"U+	c #E3E6E9",
"V+	c #DADEE2",
"W+	c #CFD6DB",
"X+	c #A4ADB6",
"Y+	c #495158",
"Z+	c #2F353A",
"`+	c #2B2F34",
" @	c #7B858F",
".@	c #DEDEDF",
"+@	c #969696",
"@@	c #DCDCDC",
"#@	c #86837F",
"$@	c #827F7B",
"%@	c #C1C6CA",
"&@	c #ACB4BC",
"*@	c #A6ACB2",
"=@	c #A7AEB3",
"-@	c #949CA1",
";@	c #CACED3",
">@	c #DCE0E4",
",@	c #DADFE5",
"'@	c #D2D9DE",
")@	c #C4CDD4",
"!@	c #6F7882",
"~@	c #2B3136",
"{@	c #272B2F",
"]@	c #212327",
"^@	c #A2A8AE",
"/@	c #827B7B",
"(@	c #DEE0E1",
"_@	c #9CA4AB",
":@	c #6A7276",
"<@	c #636E72",
"[@	c #4B5558",
"}@	c #828A8E",
"|@	c #BDC4CB",
"1@	c #BDC7D0",
"2@	c #A4B0BC",
"3@	c #3D444B",
"4@	c #23272B",
"5@	c #1E2124",
"6@	c #32343A",
"7@	c #D6D6D8",
"8@	c #E2E2E2",
"9@	c #86827E",
"0@	c #7B7B74",
"a@	c #C7CBCD",
"b@	c #51575C",
"c@	c #5F696B",
"d@	c #616A6D",
"e@	c #515556",
"f@	c #626461",
"g@	c #A4AFB9",
"h@	c #9BA8B5",
"i@	c #7F8D99",
"j@	c #373D44",
"k@	c #1C1E23",
"l@	c #2B2D33",
"m@	c #B3B6B9",
"n@	c #7E7E77",
"o@	c #7A7773",
"p@	c #ACADAE",
"q@	c #3E4143",
"r@	c #323438",
"s@	c #45453E",
"t@	c #5E615E",
"u@	c #83919E",
"v@	c #748391",
"w@	c #677683",
"x@	c #5A6673",
"y@	c #5B636D",
"z@	c #ABAEB3",
"A@	c #7E7A77",
"B@	c #7B7774",
"C@	c #C8C9CA",
"D@	c #74787B",
"E@	c #5E6260",
"F@	c #747D85",
"G@	c #6C7886",
"H@	c #6A7783",
"I@	c #6F7B87",
"J@	c #9199A2",
"K@	c #CACDD1",
"L@	c #7D7976",
"M@	c #797373",
"N@	c #DADBDD",
"O@	c #C9CCCF",
"P@	c #C2C5C9",
"Q@	c #C7CACD",
"R@	c #D8DADB",
"S@	c #E6E5E7",
"T@	c #7C7575",
"U@	c #797272",
"V@	c #F2F1F2",
"W@	c #7B7474",
"X@	c #C6C6BD",
"Y@	c #C7C3B6",
"Z@	c #7A7373",
"`@	c #787171",
" #	c #B3AFA3",
".#	c #C3BFB2",
"+#	c #BABAB2",
"@#	c #BBB7B3",
"##	c #BAB2AA",
"$#	c #B1B1A9",
"%#	c #B1ADA9",
"&#	c #B0ACA0",
"*#	c #A8A8A0",
"=#	c #A9A5A1",
"-#	c #A9A199",
";#	c #A19D99",
">#	c #A29E9A",
",#	c #A09991",
"'#	c #999591",
")#	c #9A9692",
"!#	c #918D8A",
"~#	c #918A8A",
"{#	c #898981",
"]#	c #87837F",
"^#	c #85817D",
"/#	c #817A7A",
"(#	c #7D7676",
"_#	c #767070",
":#	c #64645D",
"<#	c #9B978C",
"[#	c #B2AEAA",
"}#	c #B2AEA3",
"|#	c #A9A9A2",
"1#	c #A8A499",
"2#	c #A7A098",
"3#	c #9F9F98",
"4#	c #AF7B6F",
"5#	c #A78A82",
"6#	c #A19992",
"7#	c #918D82",
"8#	c #A76F68",
"9#	c #997C6F",
"0#	c #91918A",
"a#	c #98918A",
"b#	c #9F6B60",
"c#	c #987B6F",
"d#	c #8A8682",
"e#	c #928A8A",
"f#	c #6F6F68",
"g#	c #83837C",
"h#	c #899458",
"i#	c #96BB23",
"j#	c #8A9B3F",
"k#	c #766F6F",
"l#	c #726B6B",
"m#	c #5F5F59",
"n#	c #585852",
"o#	c #536B67",
"p#	c #888561",
"q#	c #9D9D96",
"r#	c #9D9A96",
"s#	c #9C988E",
"t#	c #9D968F",
"u#	c #94948D",
"v#	c #96928F",
"w#	c #95928E",
"x#	c #8F8F88",
"y#	c #8E8B87",
"z#	c #8E8780",
"A#	c #888481",
"B#	c #86827F",
"C#	c #888181",
"D#	c #878080",
"E#	c #817D7A",
"F#	c #807D79",
"G#	c #807979",
"H#	c #7A7A73",
"I#	c #75726E",
"J#	c #73706C",
"K#	c #6E6868",
"L#	c #6D6767",
"M#	c #5A5A53",
"N#	c #415252",
"O#	c #415353",
"P#	c #414441",
"Q#	c #41413B",
"R#	c #4D4D47",
"S#	c #726F6C",
"T#	c #726D61",
"U#	c #4E4E48",
"V#	c #5C5C55",
"W#	c #79766D",
"X#	c #79796D",
"Y#	c #5B5B54",
"Z#	c #6C655B",
"`#	c #78786C",
" $	c #72726C",
".$	c #55554E",
"+$	c #5C5855",
"@$	c #4E4A48",
"#$	c #53504D",
"$$	c #524F4B",
"%$	c #4B4B45",
"&$	c #52524C",
"*$	c #525652",
"=$	c #69695F",
"-$	c #696259",
";$	c #535653",
">$	c #5F5C52",
",$	c #706960",
"'$	c #706A6A",
")$	c #595952",
"!$	c #5D5F57",
"~$	c #515956",
"{$	c #7F7F78",
"]$	c #85857F",
"^$	c #938F85",
"/$	c #928B84",
"($	c #8D8D87",
"_$	c #8D8986",
":$	c #8D8B80",
"<$	c #86867F",
"[$	c #878480",
"}$	c #867F79",
"|$	c #7E7C78",
"1$	c #807C79",
"2$	c #7F7979",
"3$	c #797773",
"4$	c #797673",
"5$	c #79736D",
"6$	c #73736D",
"7$	c #6E6C68",
"8$	c #696663",
"9$	c #5E5E55",
"0$	c #605F58",
"a$	c #54504C",
"b$	c #596259",
"c$	c #878E87",
"d$	c #8E8E87",
"e$	c #9C998F",
"f$	c #9A938D",
"g$	c #95958F",
"h$	c #949287",
"i$	c #969389",
"j$	c #8F8B88",
"k$	c #8E8B80",
"l$	c #898282",
"m$	c #817A73",
"n$	c #797972",
"o$	c #76736F",
"p$	c #6F6B69",
"q$	c #6E6C63",
"r$	c #55514C",
"s$	c #56524E",
"                                                                                                ",
"                                                                                                ",
"                                                                                                ",
"                                                                                                ",
"                                                                                                ",
"                                                                                                ",
"                                                                                                ",
"                                                                                                ",
"                                                                                                ",
"                . + + + + + @ @ # # $ $ % & . . * = - ; ; > , ' ) ! ~ { ] ^ / (                 ",
"              . + + + + + @ @ # # $ $ % & . . * - - ; ; > , ' ) _ : < [ } | 1 2 3 3             ",
"              + + 4 5 5 5 5 5 5 6 6 7 8 8 9 0 a a b b c c d e f f g g g h i j k 3 3 3           ",
"              + + 5 l m n o p q r l q 6 6 7 8 8 a a a e f f g g g g g h s s j t 3 3 3           ",
"              + + p u v u w q x y z A B 9 0 0 a c c c d e f f g g g h h s C D E 3 3 3           ",
"              + + 5 n F o G H I J K L M N O q l P 9 p r Q a b l c c h h C C R S 3 3 3           ",
"              + @ 5 n w T U V W X Y Z `  ...+.e d d e e f g g g h h h C C @.#.$.3 3 3 3         ",
"              @ @ 5 %.&.*.=.-.;.>.,.'.).!.~.{.].d 5 f a b g g h h h C C @.@.^./.3 3 3 3         ",
"              # # 5 (._.:.<.[.}.|.1.2.3.4.5.6.7.8.e f g g g h h h C C 9.@.@.0.a.3 3 3 3         ",
"              # b.r c.d.e.f.g.h.i.j.k.l.m.n.o.p.q.9 b b c 8 5 0 e e 9.@.@.r.s.t.3 3 3 3         ",
"              b.$ 9 u.v.w.x.y.z.A.B.C.D.E.F.G.H.I.J.h K.L.M.N.@.@.r.O.P.Q.r.R.S.3 3 3 3         ",
"              $ % T.U.V.W.O.X.Y.Z.`. +.+++@+#+$+%+&+*+=+-+;+>+,+'+)+!+~+{+r.]+S.3 3 3 3         ",
"              % $ ^+/+(+_+:+<+[+}+|+1+2+&+3+4+5+6+7+8+9+0+a+b+c+d+e+f+g+h+r.]+i+3 3 3 3         ",
"              j+. k+l+m+n+o+p+q+r+s+t+u+v+w+x+y+z+A+B+C+D+'+E+F+G+H+I+J+K+O.L+M+3 3 3 3         ",
"              . . a N+O+P+Q+R+S+T+U+V+W+X+Y+Z+`+ @.@h C C 9.@.@.O.+@@@r.O.O.#@$@3 3 3 3         ",
"              . * 0 %@&@*@=@-@;@>@,@'@)@!@~@{@]@^@a 0 a f g @.Q.r.r.r.O.O.O.#@/@3 3 3 3         ",
"              * = 0 (@_@:@<@[@}@|@;.1@2@3@4@5@6@7@C C 9.@.@.Q.r.r.r.O.O.O.8@9@0@3 3 3 3         ",
"              = - a b a@b@c@d@e@f@g@h@i@j@k@l@m@C C 9.@.@.Q.r.r.r.O.O.O.8@8@n@o@3 3 3 3         ",
"              - ; b b e p@q@r@s@t@u@v@w@x@y@z@@.C 9.@.@.Q.r.r.r.O.O.O.8@8@8@A@B@3 3 3 3         ",
"              ; ; b c d g C@D@E@F@G@H@I@J@K@@.C 9.@.@.Q.r.r.r.O.O.O.8@8@8@P.L@M@3 3 3 3         ",
"              ; > c d d e e :+N@O@P@Q@R@S@C C 9.@.@.Q.r.r.r.O.O.O.8@8@8@P.P.T@U@3 3 3 3         ",
"              > , d d p V@V@q l P %.p 5 o 6 q Q 7 8 l 9 5 p r 6 r q n i e P.W@U@3 3 3 3         ",
"              X@Y@V@e f f g g g h h h C C 9.@.@.Q.r.r.r.r.O.O.8@8@8@P.P.P.c Z@`@3 3 3 3         ",
"               #.#+#@#{ ##$#%#&#&#*#| =#-#;#;#>#,#'#'#)#!#!#!#~#{#]#^#/#(#Z@_#:#3 3 3 3         ",
"              3 <#[#}#|#|#=#1#2#3#4#5#6#7#8#9#0#a#b#c#d#e#$@f#g#h#i#j#U@k#l#m#n#3 3 3 3         ",
"              3 3 o#p#q#q#r#s#t#u#v#w#x#y#y#/.z#A#B#C#D#E#F#G#H#I#J#K#L#M#N#O#3 3 3 3 3         ",
"                3 3 3 3 3 3 P#Q#R#S#T#U#V#W#X#Y#Z#`# $.$+$V#@$#$3 3 3 3 3 3 3 3 3 3 3 3         ",
"                3 3 3 3 3 3 $$%$m#m#&$&$m#m#*$m#=$-$;$>$,$'$)$!$3 3 3 3 3 3 3 3 3 3 3 3         ",
"                  3 ~${$]$^$/$($_$:$<$[$#@#@}$|$1$2$3$4$o@5$6$7$8$9$0$a$3 3 3 3 3 3 3 3         ",
"                    b$c$d$e$f$g$h$i$d$d$j$k$a.#@A#D#l$F#F#m$n$o$p$q$r$s$3 3 3 3 3 3 3           ",
"                      3 3 3 3 3 3 3 3 3 3 3 3 3 3 3 3 3 3 3 3 3 3 3 3 3 3 3 3 3 3 3             ",
"                      3 3 3 3 3 3 3 3 3 3 3 3 3 3 3 3 3 3 3 3 3 3 3 3 3 3 3 3 3 3               ",
"                        3 3 3 3 3 3 3 3 3 3 3 3 3 3 3 3 3 3 3 3 3 3 3 3 3 3 3                   ",
"                              3 3 3 3 3 3 3 3 3 3 3 3 3 3 3 3 3 3 3 3 3                         ",
"                                                                                                ",
"                                                                                                ",
"                                                                                                ",
"                                                                                                ",
"                                                                                                "};
